# xmcd
#
# Track frame offsets: 
#        150
#        20286
#        37530
#        51764
#        67562
#        83706
#        101703
#        115340
#        130868
#        151973
#        168991
#        189810
#
# Disc length: 2810 seconds
#
# Revision: 0
# Processed by: cddbd v1.5.2PL0 Copyright (c) Steve Scherf et al.
# Submitted via: ExactAudioCopy v0.99pb5
#
DISCID=800af80c
DTITLE=Natural Born Easy - Natural Born Easy
DYEAR=2009
DGENRE=Country Rock
TTITLE0=Muscle Shoals
TTITLE1=Song For John
TTITLE2=Diablo
TTITLE3=Hi-Speed Internet
TTITLE4=Rollin' On
TTITLE5=American Car
TTITLE6=Hurricane
TTITLE7=Boss' End
TTITLE8=1/4 Mile Love
TTITLE9=Get That Devil (Outta My Life)
TTITLE10=City Lights
TTITLE11=We're From the River
EXTD=
EXTT0=
EXTT1=
EXTT2=
EXTT3=
EXTT4=
EXTT5=
EXTT6=
EXTT7=
EXTT8=
EXTT9=
EXTT10=
EXTT11=
PLAYORDER=
